<?xml version="1.0" standalone="no"?>
<!DOCTYPE svg PUBLIC "-//W3C//DTD SVG 20010904//EN"
 "http://www.w3.org/TR/2001/REC-SVG-20010904/DTD/svg10.dtd">
<svg version="1.0" xmlns="http://www.w3.org/2000/svg"
 width="1280.000000pt" height="952.000000pt" viewBox="0 0 1280.000000 952.000000"
 preserveAspectRatio="xMidYMid meet">
<metadata>
Created by potrace 1.15, written by Peter Selinger 2001-2017
</metadata>
<g transform="translate(0.000000,952.000000) scale(0.100000,-0.100000)"
fill="#000000" stroke="none">
<path d="M11980 9509 c-329 -16 -640 -64 -1250 -193 -1190 -251 -1445 -324
-2175 -626 -829 -343 -893 -364 -1356 -450 -119 -21 -270 -56 -335 -75 -727
-218 -900 -318 -1357 -782 -382 -388 -729 -812 -964 -1178 -174 -272 -514
-868 -501 -880 5 -5 307 425 575 818 322 472 397 572 674 892 469 543 745 757
1154 893 251 84 629 181 900 232 529 99 612 126 1070 350 329 160 482 225 705
298 641 211 1904 523 2390 591 294 41 618 53 1088 42 148 -4 175 -2 189 11 14
15 13 17 -10 32 -13 9 -51 21 -83 26 -68 11 -474 11 -714 -1z"/>
<path d="M12372 9309 c-121 -15 -154 -33 -232 -119 -38 -43 -85 -85 -104 -94
-44 -21 -180 -21 -345 -1 -68 9 -126 13 -129 10 -8 -8 60 -33 161 -60 113 -30
216 -32 313 -6 109 30 144 49 211 117 73 74 86 79 268 94 128 11 154 18 141
39 -18 29 -147 38 -284 20z"/>
<path d="M11270 9084 c-8 -2 -80 -15 -160 -29 -198 -35 -371 -76 -590 -140
-478 -139 -810 -274 -1335 -544 -438 -225 -570 -314 -799 -539 -114 -112 -182
-189 -174 -198 3 -2 136 93 296 213 301 226 400 292 630 421 260 145 486 240
857 362 691 226 1305 433 1322 445 17 14 17 14 -7 14 -14 -1 -32 -3 -40 -5z"/>
<path d="M7133 8035 c25 -18 777 -397 777 -391 0 16 -372 240 -492 296 -74 34
-280 110 -296 110 -4 0 1 -7 11 -15z"/>
<path d="M8833 7699 c-73 -14 -111 -39 -223 -144 -92 -88 -113 -103 -149 -108
-39 -5 -122 2 -203 18 -54 10 -48 -8 10 -33 153 -65 234 -76 329 -41 48 18 73
37 148 114 50 51 110 103 135 116 44 23 51 24 273 22 126 -1 227 0 225 3 -9 8
-197 43 -290 53 -111 12 -194 13 -255 0z"/>
<path d="M7256 7626 c-165 -62 -183 -204 -84 -669 11 -53 23 -96 25 -93 2 2
-1 85 -8 183 -20 299 8 460 88 498 33 16 43 16 142 1 58 -8 162 -18 231 -21
69 -3 160 -8 204 -11 49 -3 76 -2 72 4 -15 24 -413 109 -551 118 -57 3 -92 0
-119 -10z"/>
<path d="M9530 7576 c0 -4 9 -24 20 -46 26 -50 25 -60 -6 -122 l-26 -51 29 21
c16 12 42 39 58 62 l28 41 -19 26 c-21 28 -84 80 -84 69z"/>
<path d="M9350 7508 c1 -50 30 -140 47 -145 6 -2 21 6 33 19 27 29 22 63 -20
123 -40 58 -60 59 -60 3z"/>
<path d="M9015 7438 c13 -107 37 -223 52 -249 16 -26 61 -59 82 -59 6 0 11 9
11 20 0 40 -125 340 -141 340 -6 0 -7 -23 -4 -52z"/>
<path d="M9620 7248 c0 -4 11 -28 25 -54 29 -55 30 -75 9 -156 -8 -33 -13 -62
-11 -64 8 -8 67 136 67 162 0 16 -16 42 -45 72 -24 26 -45 44 -45 40z"/>
<path d="M9855 7216 c25 -80 13 -224 -27 -326 -53 -135 -221 -419 -323 -545
-141 -175 -159 -219 -180 -433 -25 -245 -38 -288 -102 -341 -59 -48 -120 -64
-227 -59 -50 3 -100 8 -111 12 -11 3 3 -4 30 -17 147 -70 290 -56 386 37 50
48 87 142 144 367 67 259 96 330 185 444 38 50 91 118 118 153 50 65 126 209
157 297 35 98 13 311 -41 404 -8 14 -13 17 -9 7z"/>
<path d="M9473 7193 c-5 -16 -8 -73 -8 -128 0 -94 1 -100 21 -103 12 -2 35 9
53 23 35 30 38 52 17 133 -26 95 -67 132 -83 75z"/>
<path d="M7250 6706 c0 -17 91 -145 130 -179 59 -54 108 -75 201 -87 94 -11
356 -12 439 0 l55 7 -62 2 c-150 3 -435 32 -492 50 -73 23 -142 72 -215 154
-31 34 -56 58 -56 53z"/>
<path d="M9275 6688 c-30 -97 -39 -121 -56 -142 -19 -24 -27 -26 -92 -26 -64
0 -145 9 -232 26 -20 4 -27 3 -20 -4 15 -15 196 -71 275 -84 77 -13 93 -7 116
47 14 33 30 195 20 195 -4 0 -8 -6 -11 -12z"/>
<path d="M8340 6573 c0 -5 35 -34 77 -63 103 -72 150 -115 185 -169 25 -40 28
-54 28 -128 0 -45 -12 -158 -26 -250 -16 -106 -23 -184 -19 -211 8 -55 54
-107 110 -127 46 -15 55 -12 32 13 -27 30 -47 89 -47 138 0 26 14 122 31 213
55 297 43 352 -96 454 -111 80 -275 158 -275 130z"/>
<path d="M7872 6230 c-114 -57 -239 -196 -316 -348 -15 -30 -26 -58 -24 -64 2
-6 59 52 126 129 146 169 171 191 287 249 50 25 94 50 100 55 5 5 -14 9 -51 9
-48 0 -74 -7 -122 -30z"/>
<path d="M8230 6025 c0 -6 17 -80 37 -165 46 -195 49 -318 13 -545 -44 -280
-29 -474 61 -767 77 -250 120 -349 297 -688 160 -308 178 -361 257 -747 67
-329 112 -457 275 -783 149 -298 264 -486 426 -695 152 -196 215 -255 175
-162 -10 23 -125 229 -256 457 -426 745 -467 838 -510 1140 -33 237 -63 322
-265 760 -150 324 -175 387 -244 599 -63 195 -100 355 -116 500 -12 113 -9
174 22 411 25 189 20 265 -22 391 -42 129 -150 339 -150 294z"/>
<path d="M7055 5745 c-279 -51 -460 -156 -543 -314 -49 -93 -73 -184 -73 -287
-1 -185 47 -318 219 -604 190 -316 273 -415 296 -354 20 51 -7 107 -157 334
-136 207 -180 290 -208 396 -29 112 -36 289 -15 378 41 172 119 239 375 320
148 47 253 66 361 66 180 0 271 -67 350 -260 47 -113 66 -197 120 -525 94
-567 239 -1075 400 -1396 94 -187 420 -693 545 -844 16 -20 16 -20 6 0 -5 12
-67 117 -136 235 -174 293 -277 484 -373 685 -185 389 -223 523 -297 1025 -46
315 -121 750 -141 820 -68 236 -234 341 -533 339 -69 0 -157 -7 -196 -14z"/>
<path d="M4645 5505 c35 -29 536 -272 637 -309 116 -43 198 -61 337 -75 115
-12 452 -13 491 -2 24 7 23 8 -15 19 -22 6 -191 39 -375 72 -531 97 -603 115
-925 245 -176 71 -174 70 -150 50z"/>
<path d="M3655 5070 c-473 -125 -944 -266 -1210 -362 -475 -172 -846 -385
-1073 -618 -186 -190 -261 -332 -311 -594 -49 -254 -53 -316 -61 -1046 -8
-708 -17 -898 -55 -1085 -49 -237 -258 -446 -565 -566 -82 -31 -229 -119 -201
-119 7 0 41 7 75 16 383 97 696 331 782 584 47 140 64 429 64 1097 0 468 2
515 39 908 29 303 45 377 114 510 33 64 63 102 147 185 180 181 449 345 914
560 334 154 485 207 976 340 146 39 308 88 360 107 121 45 253 107 270 128 11
13 9 15 -16 14 -16 0 -128 -27 -249 -59z"/>
<path d="M7100 3920 c52 -132 256 -519 347 -657 245 -374 376 -478 1311 -1045
17 -11 32 -17 32 -15 0 3 -93 70 -207 150 -249 173 -342 244 -533 409 -281
242 -380 361 -720 863 -238 352 -233 344 -242 345 -4 0 1 -23 12 -50z"/>
<path d="M4680 3804 c-115 -17 -191 -34 -360 -81 -470 -131 -535 -140 -1480
-213 -289 -22 -579 -47 -645 -55 -125 -15 -225 -39 -225 -55 0 -29 177 -53
340 -45 340 15 987 63 1225 91 288 33 367 49 670 139 365 108 413 119 570 119
l140 1 82 -42 c45 -24 140 -76 212 -117 122 -71 188 -112 654 -415 437 -284
2720 -1666 3207 -1941 327 -185 503 -303 616 -415 104 -102 134 -152 134 -222
-1 -73 -16 -126 -81 -274 -32 -75 -59 -143 -59 -150 0 -17 91 72 136 132 51
70 94 163 96 211 7 127 -1 174 -35 224 -111 161 -854 650 -2097 1379 -1120
657 -1822 1091 -2165 1338 -382 275 -457 321 -607 371 -66 22 -92 26 -190 25
-62 -1 -124 -3 -138 -5z"/>
<path d="M1977 3233 c-23 -46 -34 -104 -81 -429 -78 -538 -79 -540 -273 -949
-154 -322 -160 -349 -173 -715 -18 -510 -31 -529 -320 -444 -105 31 -216 36
-326 14 -123 -24 -537 -139 -743 -206 -98 -32 -36 -25 135 15 358 84 418 94
574 95 125 1 169 -4 320 -33 200 -38 258 -38 338 3 80 41 129 120 153 246 10
54 9 94 -5 226 -20 203 -20 258 3 370 23 110 65 217 183 469 49 105 107 234
129 288 114 284 209 918 156 1040 -20 46 -50 50 -70 10z"/>
<path d="M1140 2481 c0 -15 149 -120 237 -168 90 -49 161 -61 268 -43 110 18
107 20 -62 69 -70 21 -196 63 -280 94 -166 62 -163 61 -163 48z"/>
<path d="M8885 2318 c29 -242 43 -274 154 -352 92 -64 104 -80 225 -303 43
-79 82 -145 87 -149 33 -20 -45 296 -100 404 -26 52 -43 64 -152 115 -76 35
-100 52 -118 81 -23 37 -81 196 -81 222 0 8 -4 14 -9 14 -6 0 -8 -15 -6 -32z"/>
<path d="M9563 1338 c-88 -83 -107 -95 -167 -104 l-49 -7 37 -19 c20 -10 59
-22 87 -25 40 -5 53 -2 70 13 33 30 108 189 95 202 -3 2 -36 -25 -73 -60z"/>
<path d="M9947 1136 c4 -8 85 -101 178 -206 204 -229 308 -366 335 -438 54
-144 -6 -305 -136 -367 -31 -15 -117 -42 -192 -62 -76 -19 -141 -38 -147 -41
-16 -10 62 -21 155 -21 140 -1 261 24 308 64 68 57 132 237 134 375 2 117 -18
146 -261 377 -200 190 -362 333 -375 333 -4 0 -3 -6 1 -14z"/>
</g>
</svg>
